<svg xmlns="http://www.w3.org/2000/svg" height="29.172" width="65" id="svg5487"><defs id="defs4"><style id="style2">.cls-1{fill:#ccc}</style></defs><g transform="matrix(.5873 0 0 .5873 -.044 -.041)" id="layer1"><g id="g5493"><path transform="translate(-.5 -.5)" d="M54.78 28.72h1.74v3.89h1.26L60 28.72h1.9l-2.7 4.57 2.86 5h-2l-2.26-4.17h-1.25v4.18h-1.74v-9.58zM66 31.26a3.64 3.64 0 0 1 3.8 3.6 3.77 3.77 0 0 1-7.53 0 3.55 3.55 0 0 1 3.73-3.6zm5.15.16h1.64v5.41h2.16v-5.4h1.64v5.4h2.16v-5.4h1.64v6.87h-9.21v-6.88zm14.09-.16a3 3 0 0 1 3.06 3.25 4.8 4.8 0 0 1-.06.67h-4.76A2 2 0 0 0 85.54 37a3.36 3.36 0 0 0 2-.74l.68 1.22a4.42 4.42 0 0 1-2.77 1 3.52 3.52 0 0 1-3.7-3.6 3.41 3.41 0 0 1 3.46-3.62zm3.86 5.6c.84-.13 1.45-.84 1.45-3.28v-2.16h5v6.88h-1.71v-5.5h-1.68v.77c0 3-.8 4.73-3.09 4.79v-1.5zm11.36-5.6a3 3 0 0 1 3.06 3.25 4.8 4.8 0 0 1-.06.67h-4.77a2 2 0 0 0 2.06 1.82 3.36 3.36 0 0 0 2-.74l.68 1.22a4.42 4.42 0 0 1-2.77 1 3.52 3.52 0 0 1-3.7-3.6 3.41 3.41 0 0 1 3.47-3.62zm4.47.16h1.71v2.64h.84l1.67-2.64H111l-2.19 3.28 2.44 3.57h-2l-1.8-2.8h-.9v2.8h-1.71v-6.85zM66 37a2.16 2.16 0 0 0 0-4.31A2.16 2.16 0 0 0 66 37zm20.56-3a1.35 1.35 0 0 0-1.38-1.45 1.67 1.67 0 0 0-1.7 1.45zm15.22 0a1.35 1.35 0 0 0-1.38-1.45A1.67 1.67 0 0 0 98.69 34z" class="cls-1" id="path5489" fill="#ccc"/><path transform="translate(-.5 -.5)" d="M78.81 7.84v16.24a.44.44 0 0 1-.43.45H75a.44.44 0 0 1-.45-.43V7.84a.44.44 0 0 1 .45-.45h3.33a.44.44 0 0 1 .45.43s.03.01.03.02zm25.87-.45a.76.76 0 0 1 .45.19.41.41 0 0 1 .07.39l-5.48 16.27a.46.46 0 0 1-.42.29h-3a.42.42 0 0 1-.42-.29l-3.19-9.49-3.19 9.49a.46.46 0 0 1-.42.29h-3a.41.41 0 0 1-.42-.29L80.29 8a.43.43 0 0 1 .06-.39.4.4 0 0 1 .35-.19h3.7a.45.45 0 0 1 .42.32l2.93 9.62L91 7.71a.46.46 0 0 1 .42-.29H94a.42.42 0 0 1 .42.29l3.22 9.62 2.93-9.62a.44.44 0 0 1 .42-.32h3.7zm5.6 0a.48.48 0 0 1 .45.45v16.24a.44.44 0 0 1-.43.45H107a.44.44 0 0 1-.45-.43V7.84a.44.44 0 0 1 .43-.45h3.33zM72.67 24a.33.33 0 0 1-.26.55h-4.06a.52.52 0 0 1-.42-.19l-.68-.84a9.07 9.07 0 0 1-4.86 1.45A9 9 0 1 1 70 20.8zm-33.88 7.84c.84.32 1.16 1.58 1.22 2.12.13 1-.16 1.38-.48 1.38-.32 0-.77-.39-1.26-1.16a2.36 2.36 0 0 1-.42-2.09.71.71 0 0 1 .93-.26zm-4.89 3.63a2.51 2.51 0 0 1 1.61.67c1 .84 1.29 1.8.77 2.51a1.69 1.69 0 0 1-1.32.58 2.3 2.3 0 0 1-1.51-.55 2.11 2.11 0 0 1-.58-2.77 1.25 1.25 0 0 1 1.03-.44zm-11.26 9.3A22.1 22.1 0 1 1 41.65 34a.15.15 0 0 1-.26-.06c-.77-5.44-4.09-8.43-8.91-9.33-.42-.07-.48-.32.06-.39a22 22 0 0 1 4.67.1 14.8 14.8 0 0 0 .1-1.7 14.64 14.64 0 1 0-14.64 14.62h.67a19.75 19.75 0 0 1-.29-4c0-.9.23-1 .61-.32a15.27 15.27 0 0 0 10.58 7.92c4.63 1 9.27 2.22 14.25 8.56.45.55-.22 1.13-.74.68-5.08-4.51-9.72-6-13.93-6-4.73 0-7.95.64-11.2.64zm42-24.42l-1.79-2.15a.35.35 0 0 1 .26-.58h3.73a4.82 4.82 0 0 0 .29-1.67 4.74 4.74 0 1 0-9.46 0 4.81 4.81 0 0 0 4.73 5 4.45 4.45 0 0 0 2.22-.6z" class="cls-1" id="path5491" fill="#ccc"/></g></g></svg>