<svg xmlns="http://www.w3.org/2000/svg" height="24.979" width="26" data-name="Слой 1" id="Слой_1"><defs id="defs4"><style id="style2">.cls-1{fill:#ccc}</style></defs><path id="path8" d="M20.896 1.627l1.116 1.021-14.1 8.103-6.827-3.956.638-1.276L7.912 9.06zM18.056 0l1.5.766L7.911 7.465 2.488 4.37l.925-1.117 4.499 2.584zm4.945 3.7l.83 1.117-15.92 9.156L.224 9.57l.351-1.403 7.338 4.21z" class="cls-1" fill="#ccc" stroke-width=".051"/><path id="path10" d="M25.298 7.816A12.314 12.314 0 0 1 26 11.963a12.869 12.869 0 0 1-.702 4.211l-.319.862a13.258 13.258 0 0 1-2.776 4.147 12.815 12.815 0 0 1-4.147 2.743 12.75 12.75 0 0 1-5.072 1.053 12.602 12.602 0 0 1-5.072-1.053 13.397 13.397 0 0 1-4.115-2.743 12.575 12.575 0 0 1-2.776-4.148A13.09 13.09 0 0 1 0 11.963v-.861L7.912 15.6l16.684-9.57.702 1.786z" class="cls-1" fill="#ccc" stroke-width=".051"/></svg>