<svg xmlns="http://www.w3.org/2000/svg" height="24.839" width="81" data-name="Режим изоляции" id="Режим_изоляции"><defs id="defs4"><style id="style2">.cls-1{fill:#cdcccc}</style></defs><path transform="matrix(.4609 0 0 .4609 0 0)" id="polygon8" class="cls-1" fill="#cdcccc" d="M76.14 53.11H61.91l8.9-52.2h14.23z"/><path id="path10" d="M58.876 1.014A16.938 16.938 0 0 0 53.004 0c-6.48 0-11.061 3.264-11.061 7.942-.065 3.457 3.226 5.383 5.72 6.535 2.493 1.153 3.41 1.932 3.396 2.987 0 1.613-2.037 2.35-3.922 2.35a13.749 13.749 0 0 1-6.171-1.262l-.867-.383-.922 5.384c1.53.673 4.365 1.253 7.306 1.286 6.913 0 11.37-3.227 11.42-8.218.024-2.738-1.723-4.821-5.507-6.536-2.305-1.11-3.687-1.844-3.687-2.982 0-1 1.189-2.07 3.756-2.07a12.099 12.099 0 0 1 4.909.922l.59.277.89-5.213" class="cls-1" fill="#cdcccc" stroke-width=".461"/><path id="path12" d="M75.695.42h-5.07c-1.572 0-2.765.428-3.434 1.995l-9.739 22.073h6.886s1.125-2.963 1.383-3.613h8.398c.198.843.797 3.604.797 3.604H81L75.695.42M67.61 15.953c.543-1.382 2.613-6.724 2.613-6.724s.54-1.383.871-2.305l.461 2.074 1.498 6.955z" class="cls-1" fill="#cdcccc" stroke-width=".461"/><path id="path14" d="M23.045.42l-6.452 16.426-.664-3.336c-1.18-3.844-4.918-8.02-9.08-10.094l5.872 21.045h6.937L29.982.42h-6.937" class="cls-1" fill="#cdcccc" stroke-width=".461"/><path id="path16" d="M10.66.42H.084L0 .922C8.227 2.913 13.67 7.73 15.929 13.51L13.624 2.448C13.233.93 12.085.475 10.661.42" class="cls-1" fill="#cdcccc" stroke-width=".461"/></svg>