<svg xmlns="http://www.w3.org/2000/svg" height="24.941" width="104" data-name="Режим изоляции" id="Режим_изоляции"><defs id="defs9"><style id="style2">.cls-2{fill:#ccc}</style><mask maskUnits="userSpaceOnUse" height="90.92" width="104" y="40.92" x="0" id="mask"><g id="g6" transform="translate(-65.5 -54.04)"><g id="mask-2"><path id="path-1" fill="#fff" d="M65.5 185.87h104V94.95h-104z"/></g></g></mask></defs><path d="M91.832 0a12.212 12.212 0 0 1 5.303 1.21c.253.115.508.251.76.388l-1.106.98L95.132.87l-2.857 2.504-1.681-1.801-5.252 4.668 3.362 3.666-1.313 1.139 3.318 3.666-1.313 1.138 4.746 5.215 2.808-2.542 2.443 2.734a13.641 13.641 0 0 1-1.59 1.047 12.147 12.147 0 0 1-5.943 1.546c-6.659 0-12.07-5.35-12.07-11.932C79.765 5.38 85.18 0 91.831 0zM89.62 11.18l2.88-2.55 2.58 2.846-2.875 2.556zm2.056 4.922l2.856-2.572 2.603 2.846-2.881 2.552zm-4.1-9.769l2.88-2.55 2.58 2.846-2.88 2.55zm5.275-1.37l2.143-1.912 1.937 2.118-2.143 1.937zm3.824 8.774l2.142-1.913 1.937 2.14-2.142 1.913zm1.889 4.303l2.143-1.913 1.937 2.117-2.142 1.937zm.875-9.839l1.428-1.275 1.29 1.413-1.428 1.275zm-1.842-4.206l1.428-1.298 1.29 1.435-1.428 1.275zm3.662 8.427l1.429-1.283L104 12.55l-1.453 1.275zm-6.426-3.166l2.142-1.913 1.938 2.117-2.142 1.913z" class="cls-2" id="Combined-Shape" fill="#ccc" stroke-width=".121"/><g transform="translate(0 .005) scale(.12107)" id="Group-27"><g id="g15" mask="url(#mask)"><path class="cls-2" id="Fill-25" fill="#ccc" d="M20.67 131.83L0 40.91h14.29l14.29 67.84h.89l16.59-67.84h11.36l17.74 67.84h.89l13.01-67.84H104l-20.68 90.92H69.54L52.19 67.84h-.9l-16.85 63.99z"/></g></g><path d="M14.785 11.279h3.537c-.077-1.63-.866-2.281-1.695-2.281-.942 0-1.669.726-1.838 2.281m4.764 2.92v1.177a5.426 5.426 0 0 1-2.734.714c-2.594 0-3.66-1.615-3.66-4.066 0-2.361 1.19-4.068 3.511-4.068 1.931 0 3.121 1.258 3.121 3.788v.575h-5.036c0 1.862.757 2.685 2.349 2.685.834 0 1.606-.295 2.455-.806" class="cls-2" id="Fill-28" fill="#ccc" stroke-width=".121"/><path d="M23.384 14.848a3.574 3.574 0 0 0 1.422.25c1.143 0 2.008-.716 2.008-3.23 0-1.972-.711-2.607-1.745-2.607-.619 0-1.067.17-1.684.512v5.076zm.015-6.224c.463-.242 1.25-.575 2.085-.575 1.916 0 2.95 1.332 2.95 3.82 0 2.905-1.39 4.316-3.631 4.316a7.124 7.124 0 0 1-3.014-.762V4.587l1.608-.387v4.424z" class="cls-2" id="Fill-30" fill="#ccc" stroke-width=".121"/><path transform="translate(0 .005) scale(.12107)" class="cls-2" id="Fill-32" fill="#ccc" d="M336.07 40.86v90.92h-13.78V65.86h-1.15l-26.04 65.92h-8.16L260.9 67.41h-1.14v64.37h-11.48V40.86h15.44l28.58 71.68h.64l27.3-71.68z"/><path d="M47.505 12.026c0-2.096-.848-2.98-1.9-2.98-1.02 0-1.9.884-1.9 2.98 0 2.127.803 2.98 1.9 2.98s1.9-.847 1.9-2.98m-5.422 0c0-2.718 1.483-4.068 3.522-4.068 2.039 0 3.522 1.35 3.522 4.068 0 2.654-1.406 4.068-3.522 4.068-2.116 0-3.522-1.413-3.522-4.068" class="cls-2" id="Fill-34" fill="#ccc" stroke-width=".121"/><path d="M50.35 9.107c.695-.42 2.163-1.15 3.94-1.15 1.853 0 2.542.726 2.542 2.328v5.621h-1.6v-5.263c0-1.226-.606-1.443-1.39-1.443-.618 0-1.406.28-1.886.56v6.148H50.35z" class="cls-2" id="Fill-36" fill="#ccc" stroke-width=".121"/><path d="M60.233 11.279h3.538c-.077-1.63-.865-2.281-1.695-2.281-.944 0-1.668.726-1.838 2.281m4.772 2.919v1.178a5.426 5.426 0 0 1-2.733.714c-2.594 0-3.66-1.615-3.66-4.066 0-2.361 1.188-4.068 3.51-4.068 1.938 0 3.122 1.258 3.122 3.788v.575h-5.037c0 1.862.757 2.685 2.349 2.685.833 0 1.607-.295 2.455-.806" class="cls-2" id="Fill-38" fill="#ccc" stroke-width=".121"/><path d="M71.66 7.958h1.648l-2.796 7.762c-.774 2.143-1.715 3.26-3.49 3.26v-1.272c1.05 0 1.694-.84 2.07-1.988l-2.967-7.762h1.695l1.977 5.713h.094z" class="cls-2" id="Fill-40" fill="#ccc" stroke-width=".121"/><path d="M16.686 23.125v-.671a3.62 3.62 0 0 0 1.634.437q.646 0 .99-.242a.741.741 0 0 0 .346-.643.697.697 0 0 0-.285-.605 5.297 5.297 0 0 0-1.059-.5l-.345-.131-.3-.121a1.995 1.995 0 0 1-.29-.14 2.84 2.84 0 0 0-.235-.141.809.809 0 0 1-.222-.167 3.34 3.34 0 0 0-.158-.188.615.615 0 0 1-.134-.225 2.94 2.94 0 0 1-.065-.262 1.59 1.59 0 0 1-.03-.32 1.32 1.32 0 0 1 .484-1.066q.484-.404 1.347-.404a4.293 4.293 0 0 1 1.512.28v.709a3.269 3.269 0 0 0-1.453-.363c-.342 0-.598.071-.767.216a.726.726 0 0 0-.253.577.694.694 0 0 0 .253.58 3.573 3.573 0 0 0 .905.44q1.12.413 1.543.748c.282.223.422.556.422.997a1.363 1.363 0 0 1-.58 1.134q-.58.441-1.592.441a3.632 3.632 0 0 1-1.668-.37zm7.81.256h-.727l-.054-.451q-.66.546-1.32.546-.551 0-.855-.3a1.022 1.022 0 0 1-.304-.76 1.241 1.241 0 0 1 .088-.465 1.343 1.343 0 0 1 .292-.432 1.44 1.44 0 0 1 .614-.339 3.309 3.309 0 0 1 .987-.128h.475v-.21c0-.348-.064-.586-.192-.714s-.343-.191-.645-.191q-.553 0-1.359.46v-.624a3.874 3.874 0 0 1 1.627-.382q.775 0 1.074.32c.2.212.3.536.3.97v2.703zm-.799-1.784h-.407q-1.259 0-1.259.756a.44.44 0 0 0 .169.385.707.707 0 0 0 .422.121 1.332 1.332 0 0 0 .621-.156 1.311 1.311 0 0 0 .453-.363v-.748zm2.045 3.344v-4.984a2.756 2.756 0 0 1 .798-.414 2.835 2.835 0 0 1 .906-.156q1.595 0 1.595 1.957 0 1.013-.414 1.55-.414.536-1.19.537a1.453 1.453 0 0 1-.898-.271v1.78h-.798zm.79-4.722v2.362a.975.975 0 0 0 .388.222 1.391 1.391 0 0 0 .41.073.777.777 0 0 0 .664-.33q.242-.332.242-1.204c0-.472-.082-.82-.25-1.036a.777.777 0 0 0-.648-.33 1.395 1.395 0 0 0-.805.243zm4.341-.794v3.949h-.799v-3.753zm-.921-1.143a.513.513 0 0 1 .157-.37.496.496 0 0 1 .727 0 .516.516 0 0 1 0 .74.498.498 0 0 1-.727 0 .515.515 0 0 1-.157-.37zm3.91 4.644q.554 0 1.22-.404v.592a2.642 2.642 0 0 1-1.358.363q-.936 0-1.377-.538-.442-.537-.445-1.51 0-.92.453-1.479.453-.56 1.29-.562.737 0 1.144.485.406.484.406 1.417v.288h-2.5q0 .694.284 1.02c.19.219.484.327.883.327zm-.242-3.015a.768.768 0 0 0-.605.288q-.242.289-.306.858h1.757q-.031-.577-.268-.86a.726.726 0 0 0-.574-.287zm2.59 3.467v-3.413a3.702 3.702 0 0 1 1.958-.578q.682 0 .968.281.286.28.292.887v2.821h-.798v-2.64c0-.286-.06-.478-.177-.576a.778.778 0 0 0-.514-.148 1.838 1.838 0 0 0-.936.28v3.086h-.8zm5.23-3.802h1.21l-.192.53h-1.02v2.058q0 .78.66.78a1.332 1.332 0 0 0 .514-.109v.499a2.367 2.367 0 0 1-.86.14q-.575 0-.847-.331a1.332 1.332 0 0 1-.269-.87V19.06l.798-.585v1.1zm2.775-.148v3.95h-.798v-3.754zm-.916-1.146a.515.515 0 0 1 .156-.37.495.495 0 0 1 .726 0 .515.515 0 0 1 0 .74.498.498 0 0 1-.726 0 .516.516 0 0 1-.156-.37zm6.355 1.417v.623a2.065 2.065 0 0 0-1.166-.389.932.932 0 0 0-.492.121.404.404 0 0 0-.191.373.446.446 0 0 0 .21.386 2.717 2.717 0 0 0 .665.292q.253.086.38.133a3.235 3.235 0 0 1 .333.156 1.197 1.197 0 0 1 .311.218 1.09 1.09 0 0 1 .188.289.919.919 0 0 1 .084.397 1.018 1.018 0 0 1-.425.857q-.426.32-1.14.32a2.391 2.391 0 0 1-1.331-.344v-.606q.675.405 1.236.405.847 0 .847-.56a.424.424 0 0 0-.05-.203.552.552 0 0 0-.114-.153 1.07 1.07 0 0 0-.212-.133 2.348 2.348 0 0 0-.242-.108l-.315-.112q-.315-.121-.499-.202a2.18 2.18 0 0 1-.363-.222.82.82 0 0 1-.269-.323 1.073 1.073 0 0 1-.085-.445.995.995 0 0 1 .154-.56.86.86 0 0 1 .4-.335 2.285 2.285 0 0 1 .449-.14 2.074 2.074 0 0 1 .403-.04 2.624 2.624 0 0 1 1.232.305zm4.237 3.677h-.726l-.055-.451q-.66.546-1.32.546-.552 0-.855-.3a1.022 1.022 0 0 1-.303-.76 1.24 1.24 0 0 1 .088-.464 1.332 1.332 0 0 1 .292-.433 1.442 1.442 0 0 1 .614-.339 3.31 3.31 0 0 1 .985-.128h.479v-.21c0-.348-.065-.585-.192-.714-.127-.128-.343-.191-.645-.191q-.553 0-1.358.46v-.624a3.874 3.874 0 0 1 1.627-.382q.776 0 1.074.32c.2.213.299.536.299.97v2.703zm-.801-1.783h-.407q-1.26 0-1.26.757a.44.44 0 0 0 .169.385.706.706 0 0 0 .423.12 1.332 1.332 0 0 0 .62-.155 1.316 1.316 0 0 0 .453-.364v-.748zm2.805-2.017h1.21l-.192.53h-1.02v2.058q0 .78.66.78a1.332 1.332 0 0 0 .514-.109v.499a2.366 2.366 0 0 1-.861.14q-.575 0-.847-.331a1.332 1.332 0 0 1-.27-.87V19.06l.8-.585v1.1z" class="cls-2" id="Sapienti-sat" fill="#ccc" stroke-width=".121"/></svg>