<svg xmlns="http://www.w3.org/2000/svg" height="24.944" width="131" id="svg19"><defs id="defs4"><style id="style2">.cls-1{fill:#ccc}</style></defs><g transform="scale(.17572)" id="surface350"><path transform="translate(-26.18 -25.18)" d="M73 36.08h-7a21.28 21.28 0 0 0-7.66 1.44 17.61 17.61 0 0 0-6.63 4.62A23.21 23.21 0 0 0 47 50.5a39.88 39.88 0 0 0-1.79 12.89 40.39 40.39 0 0 0 1.61 12.3 21.75 21.75 0 0 0 4.43 8 15.48 15.48 0 0 0 6.63 4.36A25.58 25.58 0 0 0 66 89.34h7zm-10.9 64.16l-20.78 46.63H26.18L49 97a32.32 32.32 0 0 1-13-12q-4.93-7.89-4.93-21.51a46.24 46.24 0 0 1 2.81-16.77 33.55 33.55 0 0 1 7.66-12 31.4 31.4 0 0 1 11.36-7.15 39 39 0 0 1 13.61-2.38h19.58v121.68H73v-46.63z" class="cls-1" id="path2" fill="#ccc"/><path transform="translate(-26.18 -25.18)" d="M370.14 148.07q-13.8 0-21.61-11-7.81-11-7.83-33.07a77.86 77.86 0 0 1 2-18.21 42.23 42.23 0 0 1 5.78-13.87A27.28 27.28 0 0 1 358 63a27 27 0 0 1 13.19-3.14 28.46 28.46 0 0 1 9.36 1.27 31.07 31.07 0 0 1 6.45 3.21l-1.88 12.6a29.18 29.18 0 0 0-6.37-4.3A17.17 17.17 0 0 0 371 70.8q-7.15 0-11.75 8t-4.6 24.47q0 16.26 3.84 25.06 3.84 8.8 12 8.81a20 20 0 0 0 8.5-1.66 24.7 24.7 0 0 0 6-3.79l3.07 9.88a29.39 29.39 0 0 1-7.66 4.67 26.11 26.11 0 0 1-10.21 1.79m-68.29-43.88v42.72h-13.28V61.1h13.28v39.65l20.59-39.65h13.44l-21.27 40.33L339 146.87h-14.47zM251.34 70.8c-4.08 0-7 2.29-8.68 6.89-1.68 4.6-2.77 10.75-3.23 18.47h22a90.79 90.79 0 0 0-.56-10.16 40.11 40.11 0 0 0-1.61-8.09 12.69 12.69 0 0 0-3.07-5.28 6.79 6.79 0 0 0-4.86-1.87m23.84 70.29a32.75 32.75 0 0 1-9.36 5.12 35.29 35.29 0 0 1-11.75 1.87q-13.27 0-20.94-10.31-7.67-10.31-7.65-30.21a114.94 114.94 0 0 1 1.44-19.06 53.65 53.65 0 0 1 4.6-15.05 26.19 26.19 0 0 1 8.07-10 19.52 19.52 0 0 1 11.75-3.58 22.08 22.08 0 0 1 9.72 2.17 18.44 18.44 0 0 1 7.48 6.89 38 38 0 0 1 4.76 12.35 86 86 0 0 1 1.71 18.5v7.31h-35.74q0 14.63 4 22.12t12 7.48a23.82 23.82 0 0 0 10-2 37.56 37.56 0 0 0 6.91-3.82zM197.56 72h-14.81v1.53q0 6.79-.24 14.85-.24 8.06-1.11 16.38c-.57 5.56-1.37 11-2.38 16.38a81.07 81.07 0 0 1-4.27 14.86h22.81zm19.91 91.75h-11.91v-16.88h-36.75v16.86h-11.92V136h5.26a78.37 78.37 0 0 0 4.6-15.07q1.69-8.26 2.64-17c.61-5.84 1-11.8 1.18-17.86.18-6.06.26-11.95.26-17.62V61.1h39.83V136h6.8zM149.23 61.1v85.76h-13.11v-38.44h-19.74v38.45H103.1V61.1h13.28v36.42h19.74V61.1z" class="cls-1" id="path4" fill="#ccc"/><path transform="translate(-26.18 -25.18)" d="M469.2 32h-26.39q-.33 23.38-1 41.05-.67 17.67-1.7 31a160.66 160.66 0 0 1-3.32 22.79q-2.13 9-5.54 13.24h38zm9 114.87h-52.06L425 167.13h-6.65v-27.06h3.58q4.4-3.77 6.8-13.3a165 165 0 0 0 3.75-22.68q1.36-13.63 1.87-33.48.51-19.85.85-45.43h42.5v114.89h8.3v27.06h-6.63z" class="cls-1" id="path6" fill="#ccc"/><path transform="translate(-26.18 -25.18)" d="M519.58 66.2q-6.81 0-11.67 8.38t-5.36 24.47h31.14q1-17.12-3.31-25-4.31-7.88-10.8-7.89m-17.19 39.15q.33 17.78 4.93 27.09 4.6 9.31 14 9.33a18.89 18.89 0 0 0 7.48-1.39 20.76 20.76 0 0 0 5.45-3.31 19.12 19.12 0 0 0 4.43-4.67l2.55 6.46a20.57 20.57 0 0 1-4.93 4.95 27.46 27.46 0 0 1-6.3 3.31 24.62 24.62 0 0 1-8.86 1.46q-13.6 0-20.07-11.75-6.47-11.75-6.51-32.79a84.92 84.92 0 0 1 1.87-18.8 51 51 0 0 1 5.19-14.05 25 25 0 0 1 7.92-8.75 18.57 18.57 0 0 1 20.07-.09 21.67 21.67 0 0 1 7.33 8.69A46.84 46.84 0 0 1 541 85.35a89.17 89.17 0 0 1 .17 20z" class="cls-1" id="path8" fill="#ccc"/><path transform="translate(-26.18 -25.18)" d="M593.6 105.85h-29.27v41h-8V61.1h8v38h29.27v-38h8v85.76h-8z" class="cls-1" id="path10" fill="#ccc"/><path transform="translate(-26.18 -25.18)" d="M628.51 99.22v41.35h5.1q9 0 14.64-4.84c3.73-3.23 5.61-8.53 5.61-15.92 0-7.39-1.7-12.5-5.12-15.73-3.42-3.23-8.16-4.86-14.29-4.86zm-8-38.14h8v31.84h6.3q12.24 0 19.56 6.63 7.32 6.63 7.33 20.09 0 13.6-7.66 20.43t-19.74 6.8h-13.8z" class="cls-1" id="path12" fill="#ccc"/><path transform="translate(-26.18 -25.18)" d="M683.3 67.9v79h-7.83V61.09h36.25v6.81z" class="cls-1" id="path14" fill="#ccc"/><path transform="translate(-26.18 -25.18)" d="M764 87.14c0-2.27.06-4.36.17-6.22.11-1.86.3-3.71.52-5.52h-.52a40.87 40.87 0 0 1-2 5.52 326.7 326.7 0 0 1-2.55 5.54l-27.92 60.41h-6.8V61.09h7.48v59.58c0 2.27-.06 4.38-.17 6.3-.11 1.92-.28 3.86-.52 5.78h.52a53.53 53.53 0 0 1 2-5.69c.79-1.88 1.64-3.77 2.57-5.71l27.9-60.26h7v85.78H764z" class="cls-1" id="path16" fill="#ccc"/></g></svg>