<svg xmlns="http://www.w3.org/2000/svg" height="40" width="135" id="Layer_1"><style id="style2">.st2{fill:#fff;stroke:#fff;stroke-width:.2;stroke-miterlimit:10}.st9{opacity:.12;enable-background:new}</style><g transform="matrix(.30978 0 0 .30978 -20.507 -56.743)" id="XMLID_19_"><path id="XMLID_38_" fill="#fff" fill-opacity="0" d="M38.1 171.7h435.8v168.7H38.1z"/><g transform="matrix(1.14775 0 0 1.14677 -9.78 -45.835)" id="XMLID_37_"><path d="M431.7 312.2H80.3c-7.7 0-14.1-6.3-14.1-14.1v-84.3c0-7.7 6.3-14.1 14.1-14.1h351.5c7.7 0 14.1 6.3 14.1 14.1v84.3c-.1 7.8-6.4 14.1-14.2 14.1z" id="XMLID_65_"/></g><g transform="matrix(1.14775 0 0 1.14677 -9.78 -45.835)" id="XMLID_92_"><g id="XMLID_93_"><path d="M431.7 202c6.5 0 11.8 5.3 11.8 11.8v84.3c0 6.5-5.3 11.8-11.8 11.8H80.3c-6.5 0-11.8-5.3-11.8-11.8v-84.3c0-6.5 5.3-11.8 11.8-11.8h351.4m0-2.2H80.3c-7.7 0-14.1 6.3-14.1 14.1v84.3c0 7.7 6.3 14.1 14.1 14.1h351.5c7.7 0 14.1-6.3 14.1-14.1v-84.3c-.1-7.8-6.4-14.1-14.2-14.1z" id="XMLID_94_" fill="#a6a6a6"/></g></g><g transform="matrix(1.14775 0 0 1.14677 -9.78 -45.835)" id="XMLID_76_"><path d="M199.5 228.6c0 2.4-.7 4.2-2.1 5.6-1.6 1.7-3.7 2.5-6.2 2.5-2.4 0-4.5-.8-6.2-2.5-1.7-1.7-2.6-3.8-2.6-6.3s.9-4.6 2.6-6.3c1.7-1.7 3.8-2.5 6.2-2.5 1.2 0 2.4.2 3.5.7 1.1.5 2 1.1 2.6 1.9l-1.5 1.5c-1.1-1.3-2.7-2-4.6-2-1.8 0-3.3.6-4.6 1.9-1.3 1.2-1.9 2.9-1.9 4.9 0 2 .6 3.6 1.9 4.9 1.3 1.2 2.8 1.9 4.6 1.9 1.9 0 3.5-.6 4.7-1.9.8-.8 1.3-2 1.4-3.4h-6.1v-2h8.2c.1.2.1.7.1 1.1z" class="st2" id="XMLID_90_" fill="#fff" stroke="#fff" stroke-width=".2" stroke-miterlimit="10"/><path d="M212.5 221.5h-7.7v5.3h6.9v2h-6.9v5.3h7.7v2.1h-9.8v-16.9h9.8z" class="st2" id="XMLID_88_" fill="#fff" stroke="#fff" stroke-width=".2" stroke-miterlimit="10"/><path d="M221.6 236.3h-2.2v-14.8h-4.7v-2.1h11.6v2.1h-4.7z" class="st2" id="XMLID_86_" fill="#fff" stroke="#fff" stroke-width=".2" stroke-miterlimit="10"/><path d="M234.7 236.3v-16.9h2.2v16.9z" class="st2" id="XMLID_84_" fill="#fff" stroke="#fff" stroke-width=".2" stroke-miterlimit="10"/><path d="M246.5 236.3h-2.2v-14.8h-4.7v-2.1h11.6v2.1h-4.7z" class="st2" id="XMLID_82_" fill="#fff" stroke="#fff" stroke-width=".2" stroke-miterlimit="10"/><path d="M273.2 234.1c-1.7 1.7-3.7 2.6-6.2 2.6s-4.5-.9-6.2-2.6c-1.7-1.7-2.5-3.8-2.5-6.3s.8-4.6 2.5-6.3c1.7-1.7 3.7-2.6 6.2-2.6s4.5.9 6.2 2.6c1.7 1.7 2.5 3.8 2.5 6.2 0 2.6-.9 4.7-2.5 6.4zm-10.8-1.4c1.2 1.3 2.8 1.9 4.6 1.9 1.8 0 3.3-.6 4.6-1.9 1.2-1.3 1.9-2.9 1.9-4.8 0-2-.6-3.6-1.9-4.8-1.2-1.3-2.8-1.9-4.6-1.9-1.8 0-3.3.6-4.6 1.9-1.2 1.3-1.9 2.9-1.9 4.8s.7 3.6 1.9 4.8z" class="st2" id="XMLID_79_" fill="#fff" stroke="#fff" stroke-width=".2" stroke-miterlimit="10"/><path d="M278.7 236.3v-16.9h2.6l8.2 13.1h.1l-.1-3.3v-9.9h2.2v16.9h-2.3l-8.6-13.8h-.1l.1 3.3v10.5h-2.1z" class="st2" id="XMLID_77_" fill="#fff" stroke="#fff" stroke-width=".2" stroke-miterlimit="10"/></g><path d="M286.109 253.356c-7.576 0-13.773 5.734-13.773 13.761 0 7.913 6.197 13.762 13.773 13.762 7.575 0 13.773-5.849 13.773-13.762 0-7.912-6.198-13.76-13.773-13.76zm0 22.018c-4.132 0-7.69-3.44-7.69-8.257 0-4.93 3.558-8.256 7.69-8.256 4.131 0 7.69 3.325 7.69 8.256 0 4.817-3.559 8.257-7.69 8.257zm-30.071-22.018c-7.576 0-13.773 5.734-13.773 13.761 0 7.913 6.197 13.762 13.773 13.762 7.575 0 13.773-5.849 13.773-13.762 0-7.912-6.198-13.76-13.773-13.76zm0 22.018c-4.132 0-7.69-3.44-7.69-8.257 0-4.93 3.558-8.256 7.69-8.256 4.131 0 7.69 3.325 7.69 8.256.114 4.817-3.559 8.257-7.69 8.257zM220.343 257.6v5.849h13.887c-.459 3.325-1.492 5.619-3.213 7.339-2.066 2.064-5.165 4.243-10.79 4.243-8.607 0-15.264-6.88-15.264-15.481 0-8.601 6.657-15.482 15.265-15.482 4.59 0 8.034 1.835 10.56 4.129l4.131-4.129c-3.443-3.325-8.149-5.848-14.576-5.848-11.707 0-21.578 9.518-21.578 21.33 0 11.697 9.87 21.33 21.578 21.33 6.312 0 11.133-2.065 14.92-5.964 3.903-3.899 5.05-9.288 5.05-13.646 0-1.376-.114-2.638-.344-3.67zm146.108 4.473c-1.148-3.097-4.591-8.716-11.707-8.716-7.116 0-12.97 5.505-12.97 13.761 0 7.684 5.854 13.762 13.659 13.762 6.312 0 9.985-3.9 11.477-6.078l-4.706-3.097c-1.607 2.294-3.673 3.785-6.771 3.785-3.1 0-5.28-1.376-6.657-4.129l18.364-7.568zm-18.708 4.587c-.115-5.275 4.132-8.028 7.23-8.028 2.41 0 4.477 1.147 5.05 2.867zm-14.921 13.302h6.083V239.71h-6.083zm-9.87-23.509h-.23c-1.378-1.605-3.903-3.096-7.231-3.096-6.887 0-13.2 6.078-13.2 13.761 0 7.684 6.313 13.647 13.2 13.647 3.328 0 5.853-1.49 7.23-3.096h.23v1.95c0 5.274-2.754 8.027-7.345 8.027-3.673 0-5.969-2.638-6.887-4.932l-5.28 2.18c1.493 3.669 5.51 8.141 12.167 8.141 7.116 0 13.084-4.128 13.084-14.334v-24.656h-5.739zm-6.887 18.922c-4.132 0-7.69-3.44-7.69-8.257 0-4.816 3.443-8.371 7.69-8.371 4.132 0 7.345 3.555 7.345 8.371 0 4.817-3.213 8.257-7.345 8.257zM394.8 239.71H380.34v40.251h5.968V264.71h8.379c6.656 0 13.199-4.816 13.199-12.5 0-7.683-6.428-12.5-13.085-12.5zm.115 19.38h-8.608v-13.761h8.608c4.476 0 7.001 3.67 7.001 6.88 0 3.097-2.525 6.881-7 6.881zm37.187-5.734c-4.361 0-8.838 1.95-10.789 6.193l5.395 2.179c1.147-2.18 3.213-2.982 5.509-2.982 3.099 0 6.313 1.835 6.313 5.16v.46c-1.033-.574-3.444-1.606-6.313-1.606-5.739 0-11.592 3.21-11.592 9.06 0 5.389 4.705 8.83 9.985 8.83 4.017 0 6.313-1.836 7.69-3.9h.23v3.097h5.853v-15.482c0-7.11-5.394-11.009-12.28-11.009zm-.689 22.018c-1.95 0-4.705-1.032-4.705-3.44 0-3.096 3.443-4.358 6.427-4.358 2.64 0 3.902.573 5.51 1.376-.575 3.785-3.788 6.422-7.232 6.422zm34.089-21.215l-6.887 17.43h-.23l-7.115-17.43h-6.543l10.79 24.426-6.084 13.532h6.313l16.527-37.958zm-54.174 25.802h5.968V239.71h-5.968z" id="XMLID_52_" fill="#fff" stroke-width="1.147"/><g transform="matrix(1.14775 0 0 1.14677 -9.78 -45.835)" id="XMLID_39_"><linearGradient gradientTransform="matrix(1 0 0 -1 0 514)" y2="242.558" x2="80.32" y1="289.744" x1="127.507" gradientUnits="userSpaceOnUse" id="XMLID_40_"><stop id="stop19" offset="0" stop-color="#00a0ff"/><stop id="stop21" offset=".007" stop-color="#00a1ff"/><stop id="stop23" offset=".26" stop-color="#00beff"/><stop id="stop25" offset=".512" stop-color="#00d2ff"/><stop id="stop27" offset=".76" stop-color="#00dfff"/><stop id="stop29" offset="1" stop-color="#00e3ff"/></linearGradient><path d="M95.6 221c-.8.9-1.3 2.2-1.3 4v62.2c0 1.7.5 3.1 1.3 4l.2.2 34.8-34.8v-1l-34.8-34.8z" id="XMLID_8_" fill="url(#XMLID_40_)"/><linearGradient gradientTransform="matrix(1 0 0 -1 0 514)" y2="257.996" x2="93.311" y1="257.996" x1="161.344" gradientUnits="userSpaceOnUse" id="XMLID_41_"><stop id="stop33" offset="0" stop-color="#ffe000"/><stop id="stop35" offset=".409" stop-color="#ffbd00"/><stop id="stop37" offset=".775" stop-color="orange"/><stop id="stop39" offset="1" stop-color="#ff9c00"/></linearGradient><path d="M142.2 268l-11.6-11.6v-.8l11.6-11.6.3.1 13.8 7.8c3.9 2.2 3.9 5.9 0 8.1l-13.8 7.8z" id="XMLID_7_" fill="url(#XMLID_41_)"/><linearGradient gradientTransform="matrix(1 0 0 -1 0 514)" y2="187.556" x2="72.03" y1="251.544" x1="136.018" gradientUnits="userSpaceOnUse" id="XMLID_43_"><stop id="stop43" offset="0" stop-color="#ff3a44"/><stop id="stop45" offset="1" stop-color="#c31162"/></linearGradient><path d="M142.5 267.9L130.6 256l-35 35c1.3 1.4 3.4 1.5 5.8.2l41.1-23.3" id="XMLID_6_" fill="url(#XMLID_43_)"/><linearGradient gradientTransform="matrix(1 0 0 -1 0 514)" y2="285.164" x2="115.305" y1="313.738" x1="86.731" gradientUnits="userSpaceOnUse" id="XMLID_44_"><stop id="stop49" offset="0" stop-color="#32a071"/><stop id="stop51" offset=".069" stop-color="#2da771"/><stop id="stop53" offset=".476" stop-color="#15cf74"/><stop id="stop55" offset=".801" stop-color="#06e775"/><stop id="stop57" offset="1" stop-color="#00f076"/></linearGradient><path d="M142.5 244.1l-41.1-23.3c-2.4-1.4-4.5-1.2-5.8.2l35 35z" id="XMLID_5_" fill="url(#XMLID_44_)"/><g id="XMLID_42_"><path d="M142.2 267.6l-40.8 23.2c-2.3 1.3-4.3 1.2-5.6 0l-.2.2.2.2c1.3 1.2 3.4 1.3 5.6 0l41.1-23.3z" id="XMLID_4_" opacity=".2"/><path d="M95.6 290.6c-.8-.9-1.3-2.2-1.3-4v.4c0 1.7.5 3.1 1.3 4l.2-.2z" class="st9" id="XMLID_3_" opacity=".12"/></g><path d="M156.2 259.7l-14 8 .3.3 13.8-7.8c2-1.1 2.9-2.6 2.9-4.1-.2 1.2-1.2 2.5-3 3.6z" class="st9" id="XMLID_2_" opacity=".12"/><path d="M101.4 221.2l54.8 31.2c1.8 1 2.8 2.3 2.9 3.6 0-1.5-1-2.9-2.9-4.1l-54.8-31.2c-3.9-2.2-7.1-.4-7.1 4.1v.4c0-4.4 3.2-6.2 7.1-4z" id="XMLID_1_" opacity=".25" fill="#fff"/></g></g></svg>