<svg xmlns="http://www.w3.org/2000/svg" id="svg14" height="47.8" width="275"><defs id="defs6"><style id="style4">.cls-5{fill:#fff;fill-rule:evenodd}</style></defs><path data-name="Прямоугольник 1" id="Прямоугольник_1" fill="#fff" stroke-width=".996" d="M0 0h13.942v14.937H0z"/><path data-name="Прямоугольник 1" id="Прямоугольник_1-2" fill="#b9b6b2" stroke-width=".996" d="M0 18.921h13.942V47.8H0z"/><path data-name="Прямоугольник 1" id="Прямоугольник_1-3" fill="#c69c6d" stroke-width=".996" d="M17.925 18.921h42.821V47.8H17.925z"/><path data-name="Прямоугольник 1" id="Прямоугольник_1-4" fill="#eec431" stroke-width=".996" d="M17.925 0h42.821v14.937H17.925z"/><path d="M71.962 44.49l2.066-6.315h.05q-.066 1.523-.074 1.875-.008.353-.008.624v3.817h1.584v-8.066h-2.315l-2.01 6.166h-.033l-1.892-6.166h-2.317v8.066h1.518v-3.752q0-.645-.1-2.576h.05l1.924 6.328zm13.187 0l-2.839-8.096h-2.077l-2.827 8.097h1.83l.58-1.92h2.922l.58 1.92h1.826zm-4.905-3.353q.855-2.789 1.036-3.492.044.2.145.541.102.342.907 2.95h-2.09zm6.732-4.71v8.066h1.699v-6.651h3.365v-1.415zm13.85 8.066l-2.836-8.1h-2.08l-2.827 8.098h1.83l.581-1.92h2.921l.58 1.92h1.831zm-4.904-3.354q.854-2.789 1.035-3.492.044.2.146.541.101.342.907 2.95h-2.091zm11.485-4.275a3.558 3.558 0 0 0-2.09-.552 6.388 6.388 0 0 0-1.706.212 5.017 5.017 0 0 0-1.452.67l.74 1.143a4.064 4.064 0 0 1 2.181-.657 1.973 1.973 0 0 1 1.096.245.759.759 0 0 1 .364.66.83.83 0 0 1-.581.805 5.157 5.157 0 0 1-1.853.243h-.673v1.335h.75a4.957 4.957 0 0 1 1.92.286.903.903 0 0 1 .65.822q0 1.186-2.021 1.186a6.544 6.544 0 0 1-1.295-.14 5.143 5.143 0 0 1-1.208-.39v1.434a7.637 7.637 0 0 0 2.833.436 4.182 4.182 0 0 0 2.48-.645 2.054 2.054 0 0 0 .896-1.76 1.637 1.637 0 0 0-.59-1.307 3.018 3.018 0 0 0-1.692-.613v-.033a2.704 2.704 0 0 0 1.485-.646 1.675 1.675 0 0 0 .548-1.285 1.693 1.693 0 0 0-.782-1.451zm3.337 7.628h2.045l3.714-6.174h.044q-.1 1.527-.1 2.305v3.872h1.513v-8.066h-2.032l-3.698 6.12h-.033l.055-1.186.022-1.043v-3.893h-1.529v8.066zm16.623-8.066h-1.693v3.16h-3.173v-3.16h-1.699v8.067h1.7v-3.486h3.172v3.486h1.693v-8.066zm10.347 3.999l2.514-4h-1.83l-1.693 2.901-1.726-2.9h-1.874l2.49 3.905-2.658 4.159h1.819l1.863-3.05 1.863 3.05h1.94zm10.827-3.055a3.636 3.636 0 0 0-2.825-1.07 3.685 3.685 0 0 0-2.835 1.06 4.348 4.348 0 0 0-.99 3.076 4.414 4.414 0 0 0 .987 3.087 4.255 4.255 0 0 0 5.655 0 4.396 4.396 0 0 0 .986-3.078 4.405 4.405 0 0 0-.978-3.075zm-4.353 1.04a1.792 1.792 0 0 1 1.528-.688q2.023 0 2.023 2.725 0 2.724-2.034 2.72a1.78 1.78 0 0 1-1.523-.685 3.386 3.386 0 0 1-.51-2.035 3.37 3.37 0 0 1 .516-2.038zm9.51-.582h.772a1.52 1.52 0 0 1 1.022.286 1.123 1.123 0 0 1 .326.889 1.095 1.095 0 0 1-.389.907 1.853 1.853 0 0 1-1.173.312h-.558v-2.39zm3.077-.77a3.386 3.386 0 0 0-2.217-.631h-2.56v8.066h1.7v-2.867h.729a3.44 3.44 0 0 0 2.298-.69 2.473 2.473 0 0 0 .809-1.991 2.31 2.31 0 0 0-.76-1.887zm9.384.312a3.634 3.634 0 0 0-2.826-1.07 3.685 3.685 0 0 0-2.835 1.06 4.352 4.352 0 0 0-.989 3.076 4.414 4.414 0 0 0 .986 3.087 4.255 4.255 0 0 0 5.656 0 4.396 4.396 0 0 0 .985-3.078 4.405 4.405 0 0 0-.977-3.075zm-4.354 1.04a1.792 1.792 0 0 1 1.528-.688q2.023 0 2.023 2.725 0 2.724-2.034 2.72a1.778 1.778 0 0 1-1.522-.685 3.379 3.379 0 0 1-.51-2.035 3.37 3.37 0 0 1 .515-2.038zm13.707-1.983h-1.71v6.64h-2.489v-6.64h-1.699v8.066h10.078v-8.066h-1.693v6.64h-2.49v-6.64zm7.023 8.066h2.043l3.716-6.174h.044q-.1 1.527-.1 2.305v3.872h1.513V36.43h-2.037l-3.698 6.122h-.033l.055-1.186.022-1.043V36.43h-1.524v8.066zm13.828-4.065l2.516-4h-1.83l-1.694 2.901-1.725-2.9h-1.875l2.49 3.905-2.657 4.159h1.819l1.863-3.05 1.863 3.05h1.934zm14.609-4h-6.34v8.067h1.698V37.85h2.95v6.64h1.692v-8.065zm9.135.944a3.634 3.634 0 0 0-2.825-1.07 3.685 3.685 0 0 0-2.836 1.06 4.352 4.352 0 0 0-.988 3.076 4.414 4.414 0 0 0 .985 3.087 4.255 4.255 0 0 0 5.656 0 4.396 4.396 0 0 0 .986-3.078 4.405 4.405 0 0 0-.978-3.077zm-4.354 1.04a1.792 1.792 0 0 1 1.529-.688q2.022 0 2.022 2.725 0 2.724-2.033 2.72a1.778 1.778 0 0 1-1.523-.685 3.379 3.379 0 0 1-.51-2.035 3.37 3.37 0 0 1 .515-2.04zm6.858 8.43h1.638v-2.35h5.02v2.35h1.639v-3.774h-1.07v-6.641h-4.668a22.122 22.122 0 0 1-.686 3.444 19.104 19.104 0 0 1-1.254 3.197h-.62v3.773zm5.535-8.99v5.218h-3.13a20.667 20.667 0 0 0 1.502-5.218h1.627zm11.552 6.64l-2.838-8.096h-2.077l-2.828 8.097h1.83l.581-1.92h2.92l.582 1.92h1.829zm-4.904-3.353q.855-2.789 1.036-3.492.044.2.144.541.1.342.908 2.95h-2.092zm8.43-3.31h.773a1.525 1.525 0 0 1 1.022.287 1.123 1.123 0 0 1 .326.889 1.095 1.095 0 0 1-.39.907 1.85 1.85 0 0 1-1.171.312h-.56v-2.39zm3.077-.77a3.386 3.386 0 0 0-2.217-.63h-2.558v8.066h1.698v-2.87h.729a3.445 3.445 0 0 0 2.3-.688 2.473 2.473 0 0 0 .807-1.992 2.31 2.31 0 0 0-.763-1.887zm6.549 3.241l2.92-3.871h-1.808l-2.875 3.902v-3.904h-1.699v8.066h1.7V40.41l2.903 4.083h1.929zm11.195-2.928a3.636 3.636 0 0 0-2.825-1.07 3.685 3.685 0 0 0-2.835 1.06 4.348 4.348 0 0 0-.99 3.076 4.414 4.414 0 0 0 .987 3.087 4.255 4.255 0 0 0 5.655 0 4.396 4.396 0 0 0 .986-3.078 4.405 4.405 0 0 0-.982-3.077zm-4.354 1.04a1.792 1.792 0 0 1 1.529-.688q2.022 0 2.022 2.725 0 2.724-2.035 2.717a1.778 1.778 0 0 1-1.523-.684 3.379 3.379 0 0 1-.51-2.035 3.37 3.37 0 0 1 .513-2.038zm7.811 6.08h2.998a3.409 3.409 0 0 0 2.15-.617 2.06 2.06 0 0 0 .797-1.72 2.091 2.091 0 0 0-.336-1.247 1.766 1.766 0 0 0-1.096-.64v-.057a1.345 1.345 0 0 0 .897-.557 1.963 1.963 0 0 0 .336-1.186 1.702 1.702 0 0 0-.77-1.553 4.78 4.78 0 0 0-2.473-.487h-2.49v8.066zm1.7-6.662h.896a2.151 2.151 0 0 1 1.065.199.713.713 0 0 1 .338.664.806.806 0 0 1-.31.712 1.792 1.792 0 0 1-.996.215h-.986v-1.792zm1.05 3.15q1.426 0 1.426 1.003a1.003 1.003 0 0 1-.334.828 1.635 1.635 0 0 1-1.035.27H269.2v-2.102z" class="cls-5" data-name="Магазин хороших подарков" id="Магазин_хороших_подарков" fill="#fff" fill-rule="evenodd" stroke-width=".996"/><path d="M67.342 21.38v5.697a32.165 32.165 0 0 0 3.813.62 37.554 37.554 0 0 0 3.905.211 11.226 11.226 0 0 0 4.63-.896 6.722 6.722 0 0 0 3.05-2.57 7.29 7.29 0 0 0 1.048-3.949 7.404 7.404 0 0 0-.615-3.116A7.469 7.469 0 0 0 81.26 14.9a18.338 18.338 0 0 0-3.555-2.322 19.583 19.583 0 0 1-2.83-1.71 4.874 4.874 0 0 1-1.383-1.536 3.94 3.94 0 0 1-.418-1.862 3.156 3.156 0 0 1 .478-1.767 2.973 2.973 0 0 1 1.305-1.1 5.125 5.125 0 0 1 3.913.037 3.407 3.407 0 0 1 1.35 1.266 7.797 7.797 0 0 1 .892 2.322h2.517v-5.36a31.674 31.674 0 0 0-3.398-.62 26.674 26.674 0 0 0-3.124-.175 13.543 13.543 0 0 0-4.916.823 6.871 6.871 0 0 0-3.243 2.414 6.539 6.539 0 0 0-1.121 3.866 6.585 6.585 0 0 0 .45 2.496 7.184 7.184 0 0 0 1.267 2.044 10.027 10.027 0 0 0 1.977 1.71 24.076 24.076 0 0 0 2.59 1.494 15.165 15.165 0 0 1 2.608 1.61 4.98 4.98 0 0 1 1.36 1.6 4.382 4.382 0 0 1 .422 1.991 3.771 3.771 0 0 1-.524 2.063 3.032 3.032 0 0 1-1.387 1.195 4.9 4.9 0 0 1-1.948.37 4.253 4.253 0 0 1-3.15-1.083 6.426 6.426 0 0 1-1.535-3.286h-2.515zM98.1 23.84a4.93 4.93 0 0 1-.946.684 3.47 3.47 0 0 1-.854.333 4.128 4.128 0 0 1-.92.093 1.526 1.526 0 0 1-1.138-.472 2.848 2.848 0 0 1-.653-1.471 17.846 17.846 0 0 1-.193-3.087v-8.341h5.236V9.266h-5.235V4.643h-4.392a23.203 23.203 0 0 1-.265 2.497 6.43 6.43 0 0 1-.47 1.618 2.463 2.463 0 0 1-.826.99 4.156 4.156 0 0 1-1.654.555v1.276h2.296v10.338a6.52 6.52 0 0 0 1.35 4.503 5.247 5.247 0 0 0 4.089 1.494 7.05 7.05 0 0 0 2.788-.563 11.844 11.844 0 0 0 2.946-1.957zm15.674 3.015a7.22 7.22 0 0 0 3.196-3.228 11.681 11.681 0 0 0 1.122-5.391q0-4.55-2.26-6.908-2.261-2.359-6.707-2.359a11.403 11.403 0 0 0-3.647.564 7.503 7.503 0 0 0-2.894 1.748 8.071 8.071 0 0 0-1.892 2.996 12.195 12.195 0 0 0-.68 4.291 11.422 11.422 0 0 0 1.102 5.336 6.772 6.772 0 0 0 3.059 3.051 10.542 10.542 0 0 0 4.657.952 10.803 10.803 0 0 0 4.944-1.052zm-7.827-12.78a4.953 4.953 0 0 1 1.102-2.39 2.628 2.628 0 0 1 2.003-.797 2.788 2.788 0 0 1 2.58 1.97 15.417 15.417 0 0 1 .874 5.946 24.016 24.016 0 0 1-.166 2.969 8.664 8.664 0 0 1-.56 2.265 3.447 3.447 0 0 1-1.047 1.443 2.597 2.597 0 0 1-1.627.498 2.817 2.817 0 0 1-2.637-1.95 15.083 15.083 0 0 1-.872-5.876 19.607 19.607 0 0 1 .35-4.078zM128.45 9.12h-2.315l-5.035.148v1.258a3.6 3.6 0 0 1 1.24.435 1.52 1.52 0 0 1 .534.647 3.21 3.21 0 0 1 .22 1.055q.047.657.046 2.026v7.599a16.352 16.352 0 0 1-.119 2.423 2.147 2.147 0 0 1-.46 1.054 2.474 2.474 0 0 1-1.222.629v1.22h9.062V26.39a2.39 2.39 0 0 1-1.304-.564 2.066 2.066 0 0 1-.515-1.1 15.828 15.828 0 0 1-.129-2.46v-5.898a13.808 13.808 0 0 1 .055-1.442 4.074 4.074 0 0 1 .23-.953 2.858 2.858 0 0 1 .588-.926 3.2 3.2 0 0 1 .896-.703 1.977 1.977 0 0 1 .896-.25 1.71 1.71 0 0 1 1.35.574 4.29 4.29 0 0 1 .818 1.646h3.326V9.211a12.297 12.297 0 0 0-2.352-.24 6.802 6.802 0 0 0-3.068.704 8.863 8.863 0 0 0-2.757 2.29l-.239-.056zm24.841 13.501a8.832 8.832 0 0 1-2.424 1.859 5.846 5.846 0 0 1-2.518.526 4.129 4.129 0 0 1-3.555-1.581 8.419 8.419 0 0 1-1.185-4.928h11.651a16.797 16.797 0 0 0-.385-3.718 9.206 9.206 0 0 0-1.048-2.663 5.987 5.987 0 0 0-1.488-1.674 6.783 6.783 0 0 0-2.16-1.08 9.97 9.97 0 0 0-2.93-.389 9.698 9.698 0 0 0-4.74 1.12 7.593 7.593 0 0 0-3.152 3.292 11.225 11.225 0 0 0-1.112 5.17q0 4.642 2.16 7 2.158 2.358 6.44 2.358a10.15 10.15 0 0 0 4.226-.832 12.1 12.1 0 0 0 3.711-2.83zm-9.59-6.121a9.619 9.619 0 0 1 .995-4.162 2.526 2.526 0 0 1 2.252-1.443 2.217 2.217 0 0 1 2.131 1.388 10.915 10.915 0 0 1 .735 4.216h-6.118zm34.783-14.427a13.444 13.444 0 0 0-4.474.731 10.263 10.263 0 0 0-3.749 2.33 10.827 10.827 0 0 0-2.599 4.152 17.117 17.117 0 0 0-.937 5.918q0 6.4 2.636 9.553 2.636 3.154 8.003 3.153a9.35 9.35 0 0 0 5.016-1.35l1.248 1.331 2.646-.554v-6.971a8.618 8.618 0 0 1 .12-1.637 1.883 1.883 0 0 1 .45-.934 2.92 2.92 0 0 1 1.25-.629v-1.222h-9.408v1.221a5.615 5.615 0 0 1 1.102.425 1.53 1.53 0 0 1 .506.481 2.34 2.34 0 0 1 .285.897 15.192 15.192 0 0 1 .092 2.006v.703a4.988 4.988 0 0 1-.772 3.098 2.868 2.868 0 0 1-2.39.971 3.46 3.46 0 0 1-2.746-1.313 8.603 8.603 0 0 1-1.655-3.69 25.493 25.493 0 0 1-.541-5.613 20.099 20.099 0 0 1 .808-6.205 7.415 7.415 0 0 1 2.205-3.57 5.47 5.47 0 0 1 5.411-.702 3.429 3.429 0 0 1 1.395 1.257 8.801 8.801 0 0 1 .965 2.395h2.516V3.052a26.32 26.32 0 0 0-7.386-.98zm14.185-.18v4.531h5.035v-4.53zm-1.948 25.721h8.962V26.39a3.712 3.712 0 0 1-.826-.3 1.54 1.54 0 0 1-.478-.37 1.81 1.81 0 0 1-.266-.444 2.583 2.583 0 0 1-.157-.546 7.07 7.07 0 0 1-.082-.869q-.03-.564-.028-1.6V9.119h-2.297l-5.052.148v1.258a5.14 5.14 0 0 1 1.02.306 1.466 1.466 0 0 1 .624.509 2.091 2.091 0 0 1 .312.887 10.379 10.379 0 0 1 .083 1.46v8.6a16.17 16.17 0 0 1-.12 2.423 2.146 2.146 0 0 1-.458 1.054 2.5 2.5 0 0 1-1.241.629v1.22zm11.814 0h9.151V26.39a3.153 3.153 0 0 1-1.332-.555 1.75 1.75 0 0 1-.524-.906 8.913 8.913 0 0 1-.148-1.961v-11.39h3.547V9.267h-3.547V7.861a18.31 18.31 0 0 1 .157-2.727 3.172 3.172 0 0 1 .58-1.494 1.46 1.46 0 0 1 1.211-.527 1.195 1.195 0 0 1 .983.481 4.76 4.76 0 0 1 .69 1.494h2.499V1.314a13.758 13.758 0 0 0-2.811-.26 9.625 9.625 0 0 0-6.11 1.711 6.86 6.86 0 0 0-2.453 5.04 5.414 5.414 0 0 1-.184 1.096 1.974 1.974 0 0 1-.35.697 1.554 1.554 0 0 1-.56.425 4.967 4.967 0 0 1-1.203.287v1.276h2.242v11.392a8.976 8.976 0 0 1-.147 1.97 1.779 1.779 0 0 1-.487.878 3.175 3.175 0 0 1-1.204.574v1.22zm23.717-3.773a4.935 4.935 0 0 1-.946.684 3.485 3.485 0 0 1-.854.333 4.129 4.129 0 0 1-.92.093 1.528 1.528 0 0 1-1.139-.472 2.86 2.86 0 0 1-.652-1.471 17.885 17.885 0 0 1-.192-3.087v-8.341h5.236V9.266h-5.236V4.643h-4.392a23.19 23.19 0 0 1-.266 2.497 6.41 6.41 0 0 1-.468 1.618 2.468 2.468 0 0 1-.826.99 4.16 4.16 0 0 1-1.654.555v1.276h2.296v10.338a6.516 6.516 0 0 0 1.351 4.503 5.246 5.246 0 0 0 4.088 1.494 7.045 7.045 0 0 0 2.788-.563 11.83 11.83 0 0 0 2.94-1.951zm3.197-1.812v5.585h4.943v-5.585zm15.53-12.91h-2.315l-5.035.15v1.257a3.594 3.594 0 0 1 1.24.43 1.522 1.522 0 0 1 .534.646 3.261 3.261 0 0 1 .22 1.055q.046.657.046 2.026v7.605a16.17 16.17 0 0 1-.12 2.423 2.146 2.146 0 0 1-.459 1.054 2.483 2.483 0 0 1-1.222.629v1.22h9.062V26.39a2.39 2.39 0 0 1-1.304-.564 2.065 2.065 0 0 1-.514-1.1 15.666 15.666 0 0 1-.13-2.46v-5.898a13.742 13.742 0 0 1 .056-1.442 4.071 4.071 0 0 1 .23-.953 2.862 2.862 0 0 1 .588-.926 3.2 3.2 0 0 1 .896-.703 1.977 1.977 0 0 1 .896-.25 1.713 1.713 0 0 1 1.35.574 4.29 4.29 0 0 1 .818 1.646h3.324V9.211a12.287 12.287 0 0 0-2.352-.24 6.802 6.802 0 0 0-3.068.704 8.856 8.856 0 0 0-2.756 2.29l-.24-.056zm9.848 1.37a3.526 3.526 0 0 1 .818.298 1.7 1.7 0 0 1 .478.37 1.637 1.637 0 0 1 .275.452 2.788 2.788 0 0 1 .156.555 7.02 7.02 0 0 1 .083.86q.029.555.028 1.594v6.771a10.855 10.855 0 0 0 .515 3.653 4.083 4.083 0 0 0 1.68 2.145 5.815 5.815 0 0 0 3.115.73 6.317 6.317 0 0 0 2.701-.628 12.585 12.585 0 0 0 3.05-2.22l.22.056-.168 2.66h2.223l4.998-.167v-1.242a3.685 3.685 0 0 1-1.23-.435 1.435 1.435 0 0 1-.534-.638 3.286 3.286 0 0 1-.212-1.036q-.045-.647-.046-2.052V9.268h-7.17v1.221a3.53 3.53 0 0 1 1.084.472 1.5 1.5 0 0 1 .487.62 3.493 3.493 0 0 1 .211 1.026q.055.656.056 2.007v7.139a2.857 2.857 0 0 1-.524 1.637 3.801 3.801 0 0 1-1.278 1.195 2.923 2.923 0 0 1-1.433.425 2.215 2.215 0 0 1-1.148-.268 2.121 2.121 0 0 1-.763-.85 4.42 4.42 0 0 1-.422-1.581 26.754 26.754 0 0 1-.11-2.775V9.266h-7.135v1.221z" class="cls-5" data-name="Store Gift.ru" id="Store_Gift.ru" fill="#fff" fill-rule="evenodd" stroke-width=".996"/></svg>